<svg width="388" height="35" viewBox="0 0 388 35" fill="none" xmlns="http://www.w3.org/2000/svg">
<path d="M1.19209e-06 31.6667C1.19209e-06 33.1394 1.19391 34.3333 2.66667 34.3333C4.13943 34.3333 5.33333 33.1394 5.33333 31.6667C5.33333 30.1939 4.13943 29 2.66667 29C1.19391 29 1.19209e-06 30.1939 1.19209e-06 31.6667ZM206.167 31.6667V32.1667H206.236L206.302 32.1479L206.167 31.6667ZM309.167 2.66666V2.16666H309.098L309.031 2.18537L309.167 2.66666ZM382.5 2.66666C382.5 4.13942 383.694 5.33332 385.167 5.33332C386.639 5.33332 387.833 4.13942 387.833 2.66666C387.833 1.1939 386.639 -1.0252e-05 385.167 -1.0252e-05C383.694 -1.0252e-05 382.5 1.1939 382.5 2.66666ZM2.66667 31.6667V32.1667H179.667V31.6667V31.1667H2.66667V31.6667ZM179.667 31.6667V32.1667H206.167V31.6667V31.1667H179.667V31.6667ZM206.167 31.6667L206.302 32.1479L309.302 3.14794L309.167 2.66666L309.031 2.18537L206.031 31.1854L206.167 31.6667ZM309.167 2.66666V3.16666H385.167V2.66666V2.16666H309.167V2.66666Z" fill="#101010"/>
<rect x="2.70687" y="3.20686" width="11.9196" height="11.9196" stroke="#101010" stroke-width="1.08041"/>
<path d="M2.528 15.1217L14.6252 3.20507" stroke="#101010" stroke-width="1.08041"/>
<path d="M14.6227 15.1217L2.5255 3.20507" stroke="#101010" stroke-width="1.08041"/>
<rect x="65.7069" y="3.20686" width="11.9196" height="11.9196" stroke="#101010" stroke-width="1.08041"/>
<path d="M65.528 15.1217L77.6252 3.20507" stroke="#101010" stroke-width="1.08041"/>
<path d="M77.6227 15.1217L65.5255 3.20507" stroke="#101010" stroke-width="1.08041"/>
<rect x="193.707" y="3.20686" width="11.9196" height="11.9196" stroke="#101010" stroke-width="1.08041"/>
<path d="M193.528 15.1217L205.625 3.20507" stroke="#101010" stroke-width="1.08041"/>
<path d="M205.623 15.1217L193.525 3.20507" stroke="#101010" stroke-width="1.08041"/>
</svg>
